<?xml version="1.0" encoding="UTF-8" standalone="no"?>
<!-- Created with Inkscape (http://www.inkscape.org/) -->

<svg
   version="1.1"
   id="svg1"
   width="1254"
   height="1254"
   viewBox="0 0 1254 1254"
   sodipodi:docname="almeidaoffsec_logo_dark.svg"
   inkscape:version="1.4.4 (dcaf3e7d9e, 2026-05-05)"
   inkscape:export-filename="almeidaoffsec_logo_dark.png"
   inkscape:export-xdpi="96"
   inkscape:export-ydpi="96"
   xmlns:inkscape="http://www.inkscape.org/namespaces/inkscape"
   xmlns:sodipodi="http://sodipodi.sourceforge.net/DTD/sodipodi-0.dtd"
   xmlns="http://www.w3.org/2000/svg"
   xmlns:svg="http://www.w3.org/2000/svg">
  <defs
     id="defs1" />
  <sodipodi:namedview
     id="namedview1"
     pagecolor="#505050"
     bordercolor="#ffffff"
     borderopacity="1"
     inkscape:showpageshadow="0"
     inkscape:pageopacity="0"
     inkscape:pagecheckerboard="1"
     inkscape:deskcolor="#505050"
     inkscape:zoom="0.67224881"
     inkscape:cx="635.92526"
     inkscape:cy="622.53736"
     inkscape:window-width="1920"
     inkscape:window-height="1052"
     inkscape:window-x="0"
     inkscape:window-y="0"
     inkscape:window-maximized="1"
     inkscape:current-layer="g1"
     showguides="true">
    <sodipodi:guide
       position="559.61307,627.29635"
       orientation="0,-1"
       id="guide1"
       inkscape:locked="false" />
    <sodipodi:guide
       position="624.86746,664.90915"
       orientation="1,0"
       id="guide2"
       inkscape:locked="false" />
  </sodipodi:namedview>
  <g
     inkscape:groupmode="layer"
     inkscape:label="Image"
     id="g1">
    <rect
       style="display:none;fill:#ffffff;fill-opacity:1;stroke:none;stroke-width:2.09626;stroke-dasharray:none;stroke-opacity:1"
       id="rect41"
       width="1256.9553"
       height="1255.4679"
       x="-1.477702"
       y="-2.965246" />
    <g
       id="g44"
       style="display:none">
      <path
         d="m 904.29687,372.16602 c -1.30802,0.0469 -2.57196,0.95478 -4.36132,2.74414 l -2.91211,2.91211 -20.42969,0.33789 c -11.23664,0.18648 -20.79081,0.70213 -21.23242,1.14453 -1.9873,1.99088 3.51532,2.66538 21.84375,2.67968 19.67563,0.0153 19.70679,0.0193 22.20312,2.51563 3.09758,3.09758 7.18881,3.2277 10.27735,0.32617 3.30634,-3.10615 3.01239,-7.06062 -0.76172,-10.23633 -1.96659,-1.65478 -3.31893,-2.47069 -4.62696,-2.42382 z m 0.23438,4.94921 c 0.80399,0.0223 1.68782,0.44381 2.46875,1.38477 0.99319,1.19672 0.99319,1.80328 0,3 -0.68469,0.825 -1.87938,1.5 -2.6543,1.5 -0.77492,0 -1.66779,-0.675 -1.98437,-1.5 -0.97804,-2.54872 0.40114,-4.43374 2.16992,-4.38477 z"
         style="display:inline;fill:#4a9eff;fill-opacity:1"
         id="path21" />
      <path
         d="m 976.67969,405.52344 c -1.71548,-0.0542 -3.4533,0.95793 -5.73438,3.08984 C 968.96288,410.46607 967.27982,411 963.42969,411 H 958.4668 L 947,422.5 935.5332,434 h -39.70703 c -38.49053,0 -42.01812,0.26237 -40.32617,3 0.39565,0.64017 15.26666,1 41.32617,1 h 40.70703 l 11.48242,-11.52734 c 11.37017,-11.41358 11.52773,-11.52627 15.83985,-11.3086 2.55317,0.12889 4.56859,0.77616 4.87109,1.56446 0.2838,0.73957 1.85822,2.03872 3.49805,2.88671 2.45304,1.26851 3.50081,1.32659 5.91601,0.32618 5.7311,-2.37389 6.57056,-8.3233 1.7461,-12.38282 -1.5513,-1.30532 -2.87277,-1.99297 -4.20703,-2.03515 z m -0.006,4.54492 c 0.62814,-0.0276 1.1466,0.378 1.8164,1.2793 0.75501,1.01596 1.14304,2.44286 0.86329,3.17187 -0.81609,2.12668 -3.16727,2.52415 -4.86915,0.82227 -1.83173,-1.83173 -1.56627,-3.26925 0.88282,-4.76953 0.51204,-0.31368 0.92976,-0.48734 1.30664,-0.50391 z"
         style="display:inline;fill:#4a9eff;fill-opacity:1"
         id="path20" />
      <path
         d="m 1011.4375,449.31055 c -1.3742,0.0645 -2.6597,0.82225 -4.6973,2.61132 l -3.5039,3.07813 -70.36911,0.006 c -50.22893,0.004 -71.51197,0.33548 -74.36719,1.16016 -3.78481,1.09317 -3.86551,1.19489 -1.5,1.89453 1.375,0.40668 35.05963,0.78504 74.85547,0.83984 l 72.35743,0.0996 1.9648,2.5 c 4.0088,5.09636 12.8223,1.94955 12.8223,-4.57813 0,-3.37549 -2.6862,-6.64473 -6.127,-7.45703 -0.509,-0.12017 -0.9774,-0.17578 -1.4355,-0.15429 z M 1012.1543,454 c 2.4133,0 3.4554,2.56231 1.8359,4.51367 -1.5752,1.89805 -3.4083,1.89241 -4.9902,-0.0137 -1.5649,-1.88558 0.2679,-4.5 3.1543,-4.5 z"
         style="display:inline;fill:#4a9eff;fill-opacity:1"
         id="path19" />
      <path
         d="m 960.04687,470.38086 c 0.36292,-0.003 0.69244,0.0368 0.97657,0.12695 2.71713,0.86239 5.97656,5.31841 5.97656,8.17188 0,3.17984 -4.24183,7.32031 -7.5,7.32031 -1.425,0 -3.70648,-1.11663 -5.07031,-2.48047 l -2.48047,-2.47851 -40.59961,-0.0645 -40.60156,-0.0625 -6.77539,6.54297 c -7.08036,6.83551 -7.50014,7.11595 -8.41797,5.63086 -0.31003,-0.50163 2.86021,-4.55163 7.04492,-9 L 870.20703,476 h 40.92774 c 35.89522,0 41.00029,-0.1891 41.51757,-1.53711 0.73636,-1.91893 4.85411,-4.05993 7.39453,-4.08203 z"
         style="display:inline;fill:#4a9eff;fill-opacity:1"
         id="path18" />
      <path
         d="m 990.5,498 c 3.48581,0 7.5,4.16324 7.5,7.7793 0,6.461 -8.88122,9.73093 -12.82227,4.7207 l -1.96484,-2.5 h -53.99414 -53.99609 l -7.78516,8 -7.78516,8 h -8.9082 c -6.68099,0 -8.80697,-0.3127 -8.49805,-1.25 0.2617,-0.79401 3.21748,-1.4324 8.10547,-1.75 l 7.69531,-0.5 7.83985,-8.5 7.83789,-8.5 54.66016,-0.31836 54.6621,-0.32031 2.43165,-2.42969 C 986.81555,499.09461 989.075,498 990.5,498 Z"
         style="display:inline;fill:#4a9eff;fill-opacity:1"
         id="path17" />
      <path
         d="m 960.28516,532.10547 c 1.57607,-0.0576 3.07699,0.5834 4.51367,1.92187 3.27838,3.05427 3.82378,6.66096 1.48242,9.81055 -2.80647,3.77524 -8.05038,4.1215 -11.41797,0.75391 l -2.50781,-2.50782 -53.62891,-0.29296 c -38.754,-0.21072 -53.9464,-0.6099 -54.77734,-1.44141 -0.86665,-0.86723 -0.69559,-1.28181 0.69922,-1.68359 1.01786,-0.29319 25.70156,-0.84587 54.85156,-1.22657 l 53,-0.6914 2.82617,-2.37305 c 1.73161,-1.45432 3.38291,-2.2119 4.95899,-2.26953 z"
         style="display:inline;fill:#4a9eff;fill-opacity:1"
         id="path16" />
      <path
         d="m 853.75195,560.76172 c 16.3263,-0.23421 18.25113,-0.09 18.25,1.37109 -0.002,2.14775 -3.0664,2.88325 -11.00195,2.64063 -3.575,-0.1093 -11.4439,-0.34337 -17.48633,-0.52149 -10.63821,-0.31359 -15.41965,-1.54805 -10.4082,-2.68554 1.31705,-0.29894 10.60829,-0.66068 20.64648,-0.80469 z"
         style="display:inline;fill:#4a9eff;fill-opacity:1"
         id="path15" />
      <path
         d="m 849.13477,618 c 3.70283,0 7.86523,3.9693 7.86523,7.5 0,3.36197 -4.16685,7.5 -7.55273,7.5 -1.64862,0 -3.70003,-1.12957 -5.44727,-3 l -2.80273,-3 h -19.59766 c -17.58278,0 -21.78927,-0.5279 -18.81641,-2.36523 0.43091,-0.26632 9.2977,-0.59333 19.70313,-0.72461 l 18.91797,-0.23829 2.38672,-2.83593 C 845.42106,618.89874 847.1153,618 849.13477,618 Z"
         style="display:inline;fill:#4a9eff;fill-opacity:1"
         id="path14" />
      <path
         d="m 425.48633,632.09375 c -1.66801,-0.092 -3.36377,0.69384 -5.03125,2.36133 -3.25239,3.25238 -3.09773,6.05655 0.53711,9.6914 3.40076,3.40076 5.79806,3.22661 10.03125,-0.72851 2.3526,-2.19805 3.42619,-2.37504 15.91797,-2.63672 9.62117,-0.20155 13.51231,-0.63344 13.81054,-1.53125 0.31911,-0.96066 -2.85932,-1.25 -13.73242,-1.25 h -14.14844 l -2.52539,-3 c -1.5525,-1.84504 -3.19137,-2.81428 -4.85937,-2.90625 z m 0.12304,4.40625 c 2.28296,0 3.23373,4.35008 1.22852,5.62109 -1.87926,1.19118 -2.41413,1.09516 -3.9082,-0.70507 -1.65611,-1.9955 -0.0637,-4.91602 2.67968,-4.91602 z"
         style="display:inline;fill:#4a9eff;fill-opacity:1"
         id="path13" />
      <path
         d="m 374.88086,605.12891 c -1.30482,0.0459 -2.66427,0.69909 -4.24609,1.94336 -3.64388,2.86628 -3.64388,7.98918 0,10.85546 3.42964,2.69776 5.56703,2.61433 9.09179,-0.35156 2.83192,-2.3829 3.3139,-2.43405 29.07617,-3.14648 C 423.21109,614.03124 435,613.36897 435,612.95898 435,611.29803 430.78429,611 407.32031,611 H 382.80273 L 380,608 c -1.85406,-1.98478 -3.44152,-2.93011 -5.11914,-2.87109 z m 0.3457,4.28906 c 0.38318,-0.0245 0.77138,0.0279 1.14649,0.17187 2.08559,0.8003 2.11811,5.00718 0.0449,5.80274 -3.04235,1.16746 -4.41797,0.40822 -4.41797,-2.4375 0,-1.87486 1.56612,-3.43088 3.22656,-3.53711 z"
         style="display:inline;fill:#4a9eff;fill-opacity:1"
         id="path12" />
      <path
         d="m 354.14648,568.13281 c -1.54175,-0.0681 -3.07661,0.70747 -4.6914,2.32227 -3.12282,3.12281 -3.23925,7.73551 -0.26563,10.50586 3.01743,2.81117 7.37212,2.61484 10.22266,-0.46094 l 2.31641,-2.5 25.88671,-0.0156 c 23.77379,-0.0141 30.09648,-0.60665 28.07422,-2.6289 -0.4138,-0.4138 -12.76282,-0.94633 -27.4414,-1.1836 l -26.6875,-0.42968 -2.68164,-2.8711 c -1.64278,-1.7586 -3.19067,-2.67022 -4.73243,-2.73828 z m -0.39648,5.00781 c 0.16139,0.003 0.32706,0.0151 0.49609,0.0391 1.65273,0.23469 2.25391,0.98758 2.25391,2.82031 0,1.83273 -0.60118,2.58562 -2.25391,2.82031 -2.45711,0.34891 -3.85309,-1.79595 -2.85742,-4.39062 0.31623,-0.82408 1.23163,-1.30908 2.36133,-1.28907 z"
         style="display:inline;fill:#4a9eff;fill-opacity:1"
         id="path11" />
      <path
         d="m 295.38086,533.10937 c -3.18217,-0.0311 -6.22648,1.69242 -7.95508,5.03516 -2.52117,4.87541 -1.16172,9.39917 3.6875,12.26367 4.02198,2.37585 8.24255,1.29352 11.66211,-2.99218 L 305.5,544 h 40.52344 40.52343 l 7.95313,8 7.95312,8 h 6.69141 C 416.1509,560 419,559.3905 419,557.89258 419,557.40143 415.56561,557 411.36719,557 h -7.63477 l -7.91211,-8.25 -7.91211,-8.25 -41.08789,-0.32031 -41.08789,-0.32032 -3.23437,-3.42968 c -2.084,-2.20969 -4.64217,-3.29616 -7.11719,-3.32032 z"
         style="display:inline;fill:#4a9eff;fill-opacity:1"
         id="path10" />
      <path
         d="m 246.36523,470.47266 c -0.84457,-0.0139 -1.63344,0.13495 -2.27539,0.47851 -6.80384,3.64131 -5.86959,12.2066 1.57813,14.47266 1.58623,0.48264 3.09848,-0.15763 5.63281,-2.38281 L 254.76367,480 h 32.38086 32.37891 l 15.98828,16.0293 15.98828,16.02734 24.5,-0.66406 c 13.475,-0.36542 24.71163,-0.85184 24.9707,-1.08203 1.81947,-1.61663 -5.51148,-2.28597 -25.4707,-2.32227 l -23,-0.041 -16,-15.96875 -16,-15.9668 -33.21484,-0.006 c -31.37298,-0.005 -33.26926,-0.10959 -34.21094,-1.86914 -1.13199,-2.11515 -4.17526,-3.62232 -6.70899,-3.66406 z m 0.3125,4.62695 c 0.3222,-0.0128 0.66253,0.0125 1.01368,0.0801 2.20569,0.42477 2.98972,3.77362 1.15625,4.93554 -2.14444,1.35899 -3.69867,1.03131 -4.79102,-1.00976 -1.06103,-1.98257 0.3657,-3.91597 2.62109,-4.00586 z"
         style="display:inline;fill:#4a9eff;fill-opacity:1"
         id="path9" />
      <path
         d="m 358.51758,473.05859 c -1.81017,-0.0639 -3.77894,0.57271 -4.94336,1.85938 -2.32223,2.56604 -1.64937,6.24274 1.42578,7.79297 3.23754,1.63209 3.30304,1.62448 6.15039,-0.61524 2.08571,-1.64063 4.51964,-1.95185 17.58789,-2.25 C 387.9681,479.63512 394.33211,479.06929 395,478.40039 396.2951,477.10331 385.70734,476 371.9707,476 c -6.5371,0 -9.03816,-0.37636 -9.9707,-1.5 -0.76195,-0.9181 -2.07451,-1.39169 -3.48242,-1.44141 z"
         style="display:inline;fill:#4a9eff;fill-opacity:1"
         id="path8" />
      <path
         d="m 267.29102,447.75 c -2.99139,0 -7.29102,4.2296 -7.29102,7.17187 0,0.99516 0.93235,2.99419 2.07227,4.44336 2.78332,3.53842 7.92899,3.61965 11.13671,0.17579 l 2.29102,-2.45899 58,-0.29101 c 54.31036,-0.2724 65.86773,-0.84505 58.49023,-2.89844 C 390.62077,453.51141 363.7375,453.15441 332.25,453.09961 295.71864,453.036 275,452.64684 275,452.02344 275,450.42545 270.17408,447.75 267.29102,447.75 Z m 0.60937,4.25 c 2.02954,0 3.70592,3.20966 2.60547,4.99023 -0.95159,1.5397 -4.49504,1.20232 -5.14453,-0.49023 -0.88341,-2.30213 0.35643,-4.5 2.53906,-4.5 z"
         style="display:inline;fill:#4a9eff;fill-opacity:1"
         id="path7" />
      <path
         d="m 310.51953,420.32227 c -2.40756,0.0892 -4.78644,1.2003 -6.50781,3.38867 -2.91603,3.70712 -2.58099,7.87213 0.91211,11.36523 3.90207,3.90204 8.22602,3.92828 12.08203,0.0723 l 2.85156,-2.85157 35.11719,-0.52929 c 19.31535,-0.29099 35.4223,-0.83246 35.79297,-1.20313 2.02572,-2.02572 -5.2382,-2.53483 -36.30274,-2.54883 L 320.43164,428 l -1.80859,-3.06055 c -1.86461,-3.15652 -5.00808,-4.73185 -8.10352,-4.61718 z"
         style="display:inline;fill:#4a9eff;fill-opacity:1"
         id="path6" />
      <path
         d="m 628.83398,181.35156 c -1.08599,-0.0377 -2.9382,1.04722 -6.00586,3.47852 -22.53694,17.86189 -45.51381,32.24357 -72.32812,45.27148 -39.82762,19.35052 -87.33007,35.21693 -134,44.75781 l -13,2.65821 -0.29297,87.49023 c -0.31622,94.67518 -0.0765,100.81878 4.86524,124.83399 11.03044,53.60402 35.45838,100.96945 74.23242,143.9375 31.81956,35.26133 79.71716,71.54197 132.23437,100.16406 7.12059,3.88075 13.07336,7.05664 13.22852,7.05664 1.62175,0 29.98072,-15.64431 46.34375,-25.56641 47.81243,-28.99219 90.815,-66.12503 118.04883,-101.93359 25.2673,-33.22285 45.59999,-76.53493 54.6914,-116.5 5.75266,-25.28822 6.09534,-31.763 6.78321,-128.51758 0.53424,-75.14467 0.73898,-89.96171 -0.75196,-90.13281 -122.36039,-14.04226 -196.40575,-74.34793 -223.41425,-96.79529 -0.16538,-0.13745 -0.38415,-0.19442 -0.63477,-0.20313 z m -0.68359,31.62891 17.17383,11.38281 c 34.56432,22.9081 67.62937,38.84518 111.42578,53.70508 17.66163,5.9925 49.71911,15.14682 64.5,18.41797 l 7.75,1.71484 -0.0195,79.64844 c -0.021,85.50317 -0.15413,88.28979 -5.36914,112.29101 -4.54373,20.91175 -16.05811,52.35978 -25.15039,68.69141 l -2.41211,4.33203 2.3457,4.66797 c 4.674,9.30109 4.72283,9.16797 -3.31448,9.16797 h -7.05469 l -2.66797,4.25 c -13.883,22.12553 -39.93118,50.95708 -64.35742,71.23242 -23.25023,19.29917 -53.4487,39.70502 -82.8418,55.97852 -5.50214,3.04626 -10.15228,5.49641 -10.33203,5.44531 C 626.587,713.55412 603.38408,700.17017 595.79492,695.42969 541.43624,661.47512 501.0993,624.61868 471.27148,581.65234 L 468.04102,577 h -7.51954 C 456.27117,577 453,576.57399 453,576.01953 c 0,-0.53958 1.42571,-3.87312 3.16797,-7.40625 l 3.16797,-6.42383 -5.64258,-11.42578 c -10.64304,-21.55744 -18.8542,-46.45046 -23.36133,-70.82031 L 427.66016,465.5 l -0.375,-83.5 -0.375,-83.5 23.79492,-5.82227 c 63.44031,-15.52508 121.3727,-40.56303 166.11914,-71.79296 z"
         style="display:inline;fill:#4a9eff;fill-opacity:1"
         id="path5"
         sodipodi:nodetypes="csscccssssssssssccccsccssccssccssssccsscccccccccc" />
    </g>
    <g
       id="g43"
       transform="matrix(1.9670536,0,0,1.9670536,-606.91081,-272.67736)">
      <path
         style="fill:#00e5c8;fill-opacity:1"
         d="m 589.82645,459.13374 h 57.45746 l -21.95742,26.69077 H 575.232 Z"
         id="path3" />
      <path
         style="fill:#0d1b2a;fill-opacity:1"
         d="M 465.97079,564.31902 627.43019,269.27431 740.50437,476.48932 691.59321,478.06709 627.43019,356.5781 546.6726,506.13701 h 40.53559 l -103.8511,59.95846 h -18.68538 z"
         id="path2" />
      <path
         style="fill:#00e5c8;fill-opacity:1"
         d="m 630.90481,485.68327 138.20484,79.79261 h 19.77994 l -46.21707,-80.05032 z"
         id="path4" />
    </g>
    <text
       xml:space="preserve"
       style="font-size:117.59px;writing-mode:lr-tb;direction:ltr;fill:#0a0e1a;stroke-width:1.22489;fill-opacity:1"
       x="380.42282"
       y="948.79333"
       id="text21"><tspan
         id="tspan21"
         x="380.42282"
         y="948.79333"
         sodipodi:role="line"
         style="font-style:normal;font-variant:normal;font-weight:bold;font-stretch:normal;font-size:117.59px;font-family:'Space Grotesk';-inkscape-font-specification:'Space Grotesk Bold';fill:#0a0e1a;stroke-width:1.22489;fill-opacity:1">ALMEIDA</tspan></text>
    <text
       xml:space="preserve"
       style="font-style:normal;font-variant:normal;font-weight:normal;font-stretch:normal;font-size:42.6667px;font-family:abnes;-inkscape-font-specification:abnes;writing-mode:lr-tb;direction:ltr;fill:#4a9eff;fill-opacity:1"
       x="417.30692"
       y="1000.8044"
       id="text1"><tspan
         sodipodi:role="line"
         id="tspan1"
         x="417.30692"
         y="1000.8044"
         style="font-style:normal;font-variant:normal;font-weight:600;font-stretch:normal;font-size:42.6667px;font-family:'Space Grotesk';-inkscape-font-specification:'Space Grotesk Semi-Bold';fill:#4a9eff;fill-opacity:1">OFFENSIVE SECURITY</tspan></text>
  </g>
</svg>
