<svg xmlns="http://www.w3.org/2000/svg" viewBox="0 0 100 100">
  <rect width="100" height="100" rx="18" fill="#24292F"/>
  <path d="M50 10C27.9 10 10 27.9 10 50c0 17.7 11.5 32.8 27.4 38.1 2 .4 2.7-.9 2.7-1.9v-6.8C29.4 81 27 74 27 74c-1.8-4.6-4.4-5.8-4.4-5.8-3.6-2.5.3-2.4.3-2.4 4 .3 6.1 4.1 6.1 4.1 3.5 6.1 9.2 4.3 11.5 3.3.4-2.6 1.4-4.3 2.5-5.3-8.7-1-17.9-4.4-17.9-19.4 0-4.3 1.5-7.8 4-10.5-.4-1-1.7-5 .4-10.4 0 0 3.3-1 10.8 4 3.1-.9 6.5-1.3 9.8-1.3 3.3 0 6.7.4 9.8 1.3 7.5-5 10.8-4 10.8-4 2.1 5.4.8 9.4.4 10.4 2.5 2.7 4 6.2 4 10.5 0 15.1-9.2 18.4-17.9 19.4 1.4 1.2 2.7 3.6 2.7 7.3v10.8c0 1 .7 2.3 2.8 1.9C78.5 82.8 90 67.7 90 50 90 27.9 72.1 10 50 10z" fill="white"/>
</svg>
