<svg xmlns="http://www.w3.org/2000/svg" viewBox="0 0 100 100">
  <rect width="100" height="100" rx="18" fill="#E60023"/>
  <path d="M50 10C27.9 10 10 27.9 10 50c0 16.6 10.1 30.8 24.6 36.9-.3-3-.6-7.5.1-10.8l4.8-20.4s-1.2-2.5-1.2-6.1c0-5.7 3.3-10 8.3-10 3.9 0 5.8 2.9 5.8 6.5 0 3.9-2.5 9.8-3.8 15.3-1.1 4.6 2.2 8.3 6.6 8.3 7.9 0 13.2-10.2 13.2-22.3 0-9.3-6.2-15.8-17.2-15.8-12.5 0-20.3 9.3-20.3 19.7 0 3.6 1.1 6.1 2.8 8-.3 1.2-.9 3.8-1 5.5-1.9.1-8.4-3.1-8.4-14.3 0-13.4 11.3-27.9 33.5-27.9 17.6 0 29.4 12.8 29.4 26.6 0 17.3-10.7 30.1-25.8 30.1-5.2 0-10-2.8-11.7-5.9l-3.2 12.3c-1.2 4.5-4.4 9.6-6.5 12.9 2.9.9 5.9 1.4 9 1.4C72.1 90 90 72.1 90 50S72.1 10 50 10Z" fill="white"/>
</svg>
