<svg xmlns="http://www.w3.org/2000/svg" viewBox="0 0 100 100">
  <rect width="100" height="100" rx="22" fill="#25D366"/>
  <path d="M50 18c-17.7 0-32 14.3-32 32 0 6 1.7 11.7 4.6 16.5L18 82l16.3-4.3A32 32 0 1 0 50 18Z" fill="white"/>
  <path d="M36.3 37.6c-.7-1.6-1.4-1.6-2.1-1.7-.6 0-1.2 0-1.9 0-.6 0-1.7.2-2.6 1.3-.9 1-3.4 3.3-3.4 8.1s3.5 9.4 4 10c.4.6 6.8 10.7 16.7 14.5 8.3 3.3 10 2.6 11.8 2.4 1.7-.2 5.6-2.3 6.4-4.5.8-2.2.8-4.1.6-4.5-.3-.4-.9-.6-1.9-1.1-1-.5-5.7-2.8-6.6-3.2-.9-.3-1.5-.5-2.2.5-.6 1-2.4 3.2-3 3.8-.5.6-1.1.7-2.1.2s-4.1-1.5-7.9-4.9c-2.9-2.6-4.8-5.8-5.4-6.8-.5-1 0-1.5.4-2 .5-.5 1-1.1 1.5-1.7.4-.6.6-1 .9-1.7.3-.6.1-1.2-.1-1.7L36.3 37.6Z" fill="#25D366"/>
</svg>
